<svg width="640" height="480" xmlns="http://www.w3.org/2000/svg">
 <!-- Created with SVG-edit - http://svg-edit.googlecode.com/ -->
 <g display="inline">
  <title>fist</title>
  <path id="svg_14" d="m297,115l-10.222656,-2.288094l-59.222656,90.711922l83.554688,119.423828l-18.890625,110.847656l134.21875,-2.304688l2.4375,-98.609375l28.875,-37.21875l9.75,-76.4375l19.5,-24.875l-29,-29.75l2,-7.5l-41,-30l2,-11l-88,-56.5l-36,55.5z" stroke-linecap="null" stroke-linejoin="null" stroke-dasharray="null" stroke-width="3" stroke="#000000" fill="#bf0000"/>
  <path stroke-opacity="0" id="svg_24" d="m288,113.5l81.5,32.5l6.5,6l-4.5,27l7,-5.5l1,-25l-30,-14.5l0,-4.5l22,-36l6.5,-4l-7.5,-5l-3,13l-21.75,34.25l-5.375,0.125l-43.6875,-19.4375l-8.6875,1.0625z" stroke-linecap="null" stroke-linejoin="null" stroke-dasharray="null" stroke-width="0" stroke="#000000" fill="#000000"/>
  <path stroke-opacity="0" id="svg_25" d="m450,171.5l-39,50.5l-7.5,7l-13,-5.5l38.5,34.5l39.5,-34.5l17,-28l-23,31l-31,26l-5.5,-0.5l-18,-19.5l2,-4l49.5,-61l-1.5,-9l-8,13z" stroke-linecap="null" stroke-linejoin="null" stroke-dasharray="null" stroke-width="0" stroke="#000000" fill="#000000"/>
  <path stroke-opacity="0" id="svg_15" d="m390,397l-8,-77l-17.25,-2l25.75,-20l-59.25,-85.5l-40.15625,-16.4375l4.921875,-0.21875l11.460938,-16.109375l-4.539063,-13.109375l26.84375,20.5625l42.921875,-8.71875l20.460938,-18.359375l27.460938,-34.359375l-54.90625,82.8125l39.546875,21.90625l-65.453125,-12.09375l37.1875,42.625l16.75,48.5l9.75,9.5l-11.25,5.5l-2.25,72.5z" stroke-linecap="null" stroke-linejoin="null" stroke-dasharray="null" stroke="#000000" fill="#000000"/>
  <path stroke-opacity="0" id="svg_16" d="m328,197l23,14l19,-26l-42,12z" stroke-linecap="null" stroke-linejoin="null" stroke-dasharray="null" stroke="#000000" fill="#bf0000"/>
 </g>
</svg>